<mxfile host="app.diagrams.net" modified="2024-02-13T11:04:05.854Z" agent="Mozilla/5.0 (Windows NT 10.0; Win64; x64) AppleWebKit/537.36 (KHTML, like Gecko) Chrome/121.0.0.0 Safari/537.36" etag="Ze53SBJbgSMWeh5_1HYG" version="23.1.3" type="google">
  <diagram name="PÃ¡gina-1" id="Cx-z2yO7WmjjUm5L6ls4">
    <mxGraphModel grid="1" page="1" gridSize="10" guides="1" tooltips="1" connect="1" arrows="1" fold="1" pageScale="1" pageWidth="827" pageHeight="1169" math="0" shadow="0">
      <root>
        <mxCell id="0" />
        <mxCell id="1" parent="0" />
        <mxCell id="0xUYKPxSzaEvcI9a60H4-41" style="edgeStyle=orthogonalEdgeStyle;rounded=0;orthogonalLoop=1;jettySize=auto;html=1;endArrow=oval;endFill=0;" edge="1" parent="1" target="mAaCQEFvhIQ5pJ8AMs-x-10">
          <mxGeometry relative="1" as="geometry">
            <mxPoint x="784" y="-49.960000000000036" as="sourcePoint" />
            <Array as="points">
              <mxPoint x="780" y="-50" />
              <mxPoint x="780" y="-50" />
            </Array>
          </mxGeometry>
        </mxCell>
        <mxCell id="0xUYKPxSzaEvcI9a60H4-42" style="edgeStyle=orthogonalEdgeStyle;rounded=0;orthogonalLoop=1;jettySize=auto;html=1;endArrow=oval;endFill=0;" edge="1" parent="1">
          <mxGeometry relative="1" as="geometry">
            <mxPoint x="784" y="-74" as="sourcePoint" />
            <mxPoint x="740" y="-88.96000000000004" as="targetPoint" />
            <Array as="points">
              <mxPoint x="784" y="-89" />
            </Array>
          </mxGeometry>
        </mxCell>
        <mxCell id="0xUYKPxSzaEvcI9a60H4-46" style="edgeStyle=orthogonalEdgeStyle;rounded=0;orthogonalLoop=1;jettySize=auto;html=1;" edge="1" parent="1" source="iCEelQpR8W68b0SyWvai-1">
          <mxGeometry relative="1" as="geometry">
            <mxPoint x="1100" y="-69" as="targetPoint" />
          </mxGeometry>
        </mxCell>
        <mxCell id="iCEelQpR8W68b0SyWvai-1" value="Zinema" style="rounded=0;whiteSpace=wrap;html=1;" vertex="1" parent="1">
          <mxGeometry x="784" y="-99" width="180" height="60" as="geometry" />
        </mxCell>
        <mxCell id="iCEelQpR8W68b0SyWvai-12" value="zinema_id" style="text;html=1;align=center;verticalAlign=middle;resizable=0;points=[];autosize=1;strokeColor=none;fillColor=none;rotation=-90;" vertex="1" parent="1">
          <mxGeometry x="769" y="-190" width="80" height="30" as="geometry" />
        </mxCell>
        <mxCell id="iCEelQpR8W68b0SyWvai-13" value="lokalizazioa" style="text;html=1;align=center;verticalAlign=middle;resizable=0;points=[];autosize=1;strokeColor=none;fillColor=none;rotation=-90;" vertex="1" parent="1">
          <mxGeometry x="906" y="-205" width="90" height="30" as="geometry" />
        </mxCell>
        <mxCell id="iCEelQpR8W68b0SyWvai-14" style="edgeStyle=orthogonalEdgeStyle;rounded=0;orthogonalLoop=1;jettySize=auto;html=1;exitX=0.75;exitY=0;exitDx=0;exitDy=0;endArrow=oval;endFill=0;" edge="1" parent="1">
          <mxGeometry relative="1" as="geometry">
            <mxPoint x="849" y="-139" as="targetPoint" />
            <mxPoint x="849" y="-99" as="sourcePoint" />
            <Array as="points">
              <mxPoint x="849" y="-119" />
              <mxPoint x="850" y="-119" />
              <mxPoint x="850" y="-118" />
              <mxPoint x="849" y="-118" />
            </Array>
          </mxGeometry>
        </mxCell>
        <mxCell id="iCEelQpR8W68b0SyWvai-15" value="izena" style="text;html=1;align=center;verticalAlign=middle;resizable=0;points=[];autosize=1;strokeColor=none;fillColor=none;rotation=-90;" vertex="1" parent="1">
          <mxGeometry x="824" y="-177" width="50" height="30" as="geometry" />
        </mxCell>
        <mxCell id="zKvvEOAe6I7a4DyK3pMX-22" style="edgeStyle=orthogonalEdgeStyle;rounded=0;orthogonalLoop=1;jettySize=auto;html=1;exitX=0.25;exitY=1;exitDx=0;exitDy=0;endArrow=oval;endFill=1;" edge="1" parent="1" source="iCEelQpR8W68b0SyWvai-28">
          <mxGeometry relative="1" as="geometry">
            <mxPoint x="443.787878787879" y="500" as="targetPoint" />
          </mxGeometry>
        </mxCell>
        <mxCell id="zKvvEOAe6I7a4DyK3pMX-29" style="edgeStyle=orthogonalEdgeStyle;rounded=0;orthogonalLoop=1;jettySize=auto;html=1;exitX=0.75;exitY=1;exitDx=0;exitDy=0;endArrow=oval;endFill=1;" edge="1" parent="1" source="iCEelQpR8W68b0SyWvai-28">
          <mxGeometry relative="1" as="geometry">
            <mxPoint x="528.636363636364" y="490" as="targetPoint" />
          </mxGeometry>
        </mxCell>
        <mxCell id="yfIDoNttYfwJfurWIFvp-7" style="edgeStyle=orthogonalEdgeStyle;rounded=0;orthogonalLoop=1;jettySize=auto;html=1;entryX=0;entryY=0.5;entryDx=0;entryDy=0;endArrow=none;endFill=0;startArrow=classic;startFill=1;" edge="1" parent="1" source="iCEelQpR8W68b0SyWvai-28" target="yfIDoNttYfwJfurWIFvp-6">
          <mxGeometry relative="1" as="geometry" />
        </mxCell>
        <mxCell id="iCEelQpR8W68b0SyWvai-28" value="" style="rounded=0;whiteSpace=wrap;html=1;" vertex="1" parent="1">
          <mxGeometry x="401" y="399" width="170" height="70" as="geometry" />
        </mxCell>
        <mxCell id="iCEelQpR8W68b0SyWvai-32" value="Sarrera-id" style="text;html=1;align=center;verticalAlign=middle;resizable=0;points=[];autosize=1;strokeColor=none;fillColor=none;rotation=90;" vertex="1" parent="1">
          <mxGeometry x="401" y="530" width="80" height="30" as="geometry" />
        </mxCell>
        <mxCell id="ZefZ5wgN9eoWKqnJJMVi-20" style="edgeStyle=orthogonalEdgeStyle;rounded=0;orthogonalLoop=1;jettySize=auto;html=1;exitX=0.25;exitY=0;exitDx=0;exitDy=0;endArrow=oval;endFill=1;" edge="1" parent="1" source="iCEelQpR8W68b0SyWvai-45" target="ZefZ5wgN9eoWKqnJJMVi-24">
          <mxGeometry relative="1" as="geometry">
            <mxPoint x="1286" y="360" as="targetPoint" />
            <Array as="points">
              <mxPoint x="1285" y="382" />
              <mxPoint x="1286" y="382" />
            </Array>
          </mxGeometry>
        </mxCell>
        <mxCell id="ZefZ5wgN9eoWKqnJJMVi-21" style="edgeStyle=orthogonalEdgeStyle;rounded=0;orthogonalLoop=1;jettySize=auto;html=1;exitX=0.75;exitY=0;exitDx=0;exitDy=0;endArrow=oval;endFill=0;" edge="1" parent="1" source="iCEelQpR8W68b0SyWvai-45">
          <mxGeometry relative="1" as="geometry">
            <mxPoint x="1361" y="360" as="targetPoint" />
          </mxGeometry>
        </mxCell>
        <mxCell id="ZefZ5wgN9eoWKqnJJMVi-22" style="edgeStyle=orthogonalEdgeStyle;rounded=0;orthogonalLoop=1;jettySize=auto;html=1;exitX=1;exitY=0;exitDx=0;exitDy=0;endArrow=oval;endFill=0;" edge="1" parent="1" source="iCEelQpR8W68b0SyWvai-45">
          <mxGeometry relative="1" as="geometry">
            <mxPoint x="1399" y="360" as="targetPoint" />
            <Array as="points">
              <mxPoint x="1398" y="360" />
            </Array>
          </mxGeometry>
        </mxCell>
        <mxCell id="ZefZ5wgN9eoWKqnJJMVi-23" style="edgeStyle=orthogonalEdgeStyle;rounded=0;orthogonalLoop=1;jettySize=auto;html=1;exitX=0;exitY=0;exitDx=0;exitDy=0;endArrow=oval;endFill=0;" edge="1" parent="1" source="iCEelQpR8W68b0SyWvai-45">
          <mxGeometry relative="1" as="geometry">
            <mxPoint x="1249" y="360" as="targetPoint" />
            <Array as="points">
              <mxPoint x="1248" y="382" />
              <mxPoint x="1249" y="382" />
            </Array>
          </mxGeometry>
        </mxCell>
        <mxCell id="auXIDBL9j_P1kWm5OIt1-6" style="edgeStyle=none;curved=1;rounded=0;orthogonalLoop=1;jettySize=auto;html=1;fontSize=12;startSize=8;endSize=8;endArrow=none;endFill=0;startArrow=none;startFill=0;" edge="1" parent="1" source="iCEelQpR8W68b0SyWvai-45" target="ZefZ5wgN9eoWKqnJJMVi-16">
          <mxGeometry relative="1" as="geometry" />
        </mxCell>
        <mxCell id="mAaCQEFvhIQ5pJ8AMs-x-3" style="edgeStyle=orthogonalEdgeStyle;rounded=0;orthogonalLoop=1;jettySize=auto;html=1;exitX=0.5;exitY=0;exitDx=0;exitDy=0;endArrow=oval;endFill=0;" edge="1" parent="1" source="iCEelQpR8W68b0SyWvai-45">
          <mxGeometry relative="1" as="geometry">
            <mxPoint x="1322.666666666667" y="360" as="targetPoint" />
          </mxGeometry>
        </mxCell>
        <mxCell id="iCEelQpR8W68b0SyWvai-45" value="Filma" style="rounded=0;whiteSpace=wrap;html=1;" vertex="1" parent="1">
          <mxGeometry x="1248" y="404" width="150" height="64" as="geometry" />
        </mxCell>
        <mxCell id="ZefZ5wgN9eoWKqnJJMVi-35" style="edgeStyle=orthogonalEdgeStyle;rounded=0;orthogonalLoop=1;jettySize=auto;html=1;exitX=0.25;exitY=0;exitDx=0;exitDy=0;endArrow=oval;endFill=1;" edge="1" parent="1" source="ZefZ5wgN9eoWKqnJJMVi-15">
          <mxGeometry relative="1" as="geometry">
            <mxPoint x="911.666666666667" y="370" as="targetPoint" />
          </mxGeometry>
        </mxCell>
        <mxCell id="ZefZ5wgN9eoWKqnJJMVi-37" style="edgeStyle=orthogonalEdgeStyle;rounded=0;orthogonalLoop=1;jettySize=auto;html=1;exitX=0.75;exitY=0;exitDx=0;exitDy=0;endArrow=oval;endFill=0;" edge="1" parent="1" source="ZefZ5wgN9eoWKqnJJMVi-15">
          <mxGeometry relative="1" as="geometry">
            <mxPoint x="971.666666666667" y="370" as="targetPoint" />
          </mxGeometry>
        </mxCell>
        <mxCell id="zKvvEOAe6I7a4DyK3pMX-8" style="edgeStyle=orthogonalEdgeStyle;rounded=0;orthogonalLoop=1;jettySize=auto;html=1;exitX=0.5;exitY=1;exitDx=0;exitDy=0;endArrow=none;endFill=0;startArrow=none;startFill=0;" edge="1" parent="1" source="iCEelQpR8W68b0SyWvai-28" target="zKvvEOAe6I7a4DyK3pMX-9">
          <mxGeometry relative="1" as="geometry">
            <mxPoint x="686" y="625" as="targetPoint" />
          </mxGeometry>
        </mxCell>
        <mxCell id="yfIDoNttYfwJfurWIFvp-8" style="edgeStyle=orthogonalEdgeStyle;rounded=0;orthogonalLoop=1;jettySize=auto;html=1;entryX=1;entryY=0.5;entryDx=0;entryDy=0;endArrow=none;endFill=0;" edge="1" parent="1">
          <mxGeometry relative="1" as="geometry">
            <mxPoint x="882" y="434.00000000000045" as="sourcePoint" />
            <mxPoint x="751" y="433" as="targetPoint" />
          </mxGeometry>
        </mxCell>
        <mxCell id="ZefZ5wgN9eoWKqnJJMVi-15" value="Saioa" style="rounded=0;whiteSpace=wrap;html=1;" vertex="1" parent="1">
          <mxGeometry x="882" y="405" width="120" height="60" as="geometry" />
        </mxCell>
        <mxCell id="yfIDoNttYfwJfurWIFvp-3" style="edgeStyle=orthogonalEdgeStyle;rounded=0;orthogonalLoop=1;jettySize=auto;html=1;entryX=1;entryY=0.5;entryDx=0;entryDy=0;endArrow=classic;endFill=1;" edge="1" parent="1">
          <mxGeometry relative="1" as="geometry">
            <mxPoint x="1087" y="435" as="sourcePoint" />
            <mxPoint x="1002" y="436" as="targetPoint" />
          </mxGeometry>
        </mxCell>
        <mxCell id="ZefZ5wgN9eoWKqnJJMVi-16" value="dauka" style="rhombus;whiteSpace=wrap;html=1;" vertex="1" parent="1">
          <mxGeometry x="1087" y="395" width="80" height="80" as="geometry" />
        </mxCell>
        <mxCell id="C2vpB9DQUcM9V20TogkW-9" value="Bezero_ID" style="text;html=1;strokeColor=none;fillColor=none;align=center;verticalAlign=middle;whiteSpace=wrap;rounded=0;fontSize=16;" vertex="1" parent="1">
          <mxGeometry x="-21" y="771" width="60" height="30" as="geometry" />
        </mxCell>
        <mxCell id="C2vpB9DQUcM9V20TogkW-10" style="edgeStyle=orthogonalEdgeStyle;rounded=0;orthogonalLoop=1;jettySize=auto;html=1;exitX=0;exitY=0.5;exitDx=0;exitDy=0;endArrow=oval;endFill=1;entryX=0.983;entryY=0.586;entryDx=0;entryDy=0;entryPerimeter=0;" edge="1" parent="1">
          <mxGeometry relative="1" as="geometry">
            <mxPoint x="51.98000000000002" y="786.5800000000004" as="targetPoint" />
            <mxPoint x="90" y="786" as="sourcePoint" />
          </mxGeometry>
        </mxCell>
        <mxCell id="C2vpB9DQUcM9V20TogkW-13" style="edgeStyle=orthogonalEdgeStyle;rounded=1;orthogonalLoop=1;jettySize=auto;html=1;exitX=0.002;exitY=0.809;exitDx=0;exitDy=0;endArrow=oval;endFill=0;exitPerimeter=0;entryX=1;entryY=0.5;entryDx=0;entryDy=0;strokeColor=default;curved=0;" edge="1" parent="1">
          <mxGeometry relative="1" as="geometry">
            <mxPoint x="52" y="810" as="targetPoint" />
            <mxPoint x="89.34000000000015" y="809.7199999999998" as="sourcePoint" />
            <Array as="points">
              <mxPoint x="87" y="810" />
              <mxPoint x="52" y="809" />
            </Array>
          </mxGeometry>
        </mxCell>
        <mxCell id="C2vpB9DQUcM9V20TogkW-14" value="NAN" style="text;html=1;strokeColor=none;fillColor=none;align=center;verticalAlign=middle;whiteSpace=wrap;rounded=0;fontSize=16;" vertex="1" parent="1">
          <mxGeometry x="-7" y="794" width="60" height="30" as="geometry" />
        </mxCell>
        <mxCell id="ZefZ5wgN9eoWKqnJJMVi-24" value="Filma-id" style="text;html=1;align=center;verticalAlign=middle;resizable=0;points=[];autosize=1;strokeColor=none;fillColor=none;rotation=-90;" vertex="1" parent="1">
          <mxGeometry x="1249" y="314" width="70" height="30" as="geometry" />
        </mxCell>
        <mxCell id="ZefZ5wgN9eoWKqnJJMVi-25" value="Izena" style="text;html=1;align=center;verticalAlign=middle;resizable=0;points=[];autosize=1;strokeColor=none;fillColor=none;rotation=-90;" vertex="1" parent="1">
          <mxGeometry x="1339" y="314" width="50" height="30" as="geometry" />
        </mxCell>
        <mxCell id="ZefZ5wgN9eoWKqnJJMVi-26" value="Iraupena" style="text;html=1;align=center;verticalAlign=middle;resizable=0;points=[];autosize=1;strokeColor=none;fillColor=none;rotation=-90;" vertex="1" parent="1">
          <mxGeometry x="1364" y="308" width="70" height="30" as="geometry" />
        </mxCell>
        <mxCell id="ZefZ5wgN9eoWKqnJJMVi-27" value="Generoa" style="text;html=1;align=center;verticalAlign=middle;resizable=0;points=[];autosize=1;strokeColor=none;fillColor=none;rotation=-90;" vertex="1" parent="1">
          <mxGeometry x="1214" y="308" width="70" height="30" as="geometry" />
        </mxCell>
        <mxCell id="C2vpB9DQUcM9V20TogkW-19" style="edgeStyle=orthogonalEdgeStyle;rounded=0;orthogonalLoop=1;jettySize=auto;html=1;exitX=-0.006;exitY=0.214;exitDx=0;exitDy=0;endArrow=oval;endFill=0;exitPerimeter=0;" edge="1" parent="1">
          <mxGeometry relative="1" as="geometry">
            <mxPoint x="51" y="766" as="targetPoint" />
            <mxPoint x="89.98000000000002" y="766.1199999999999" as="sourcePoint" />
          </mxGeometry>
        </mxCell>
        <mxCell id="C2vpB9DQUcM9V20TogkW-20" value="Izena" style="text;html=1;strokeColor=none;fillColor=none;align=center;verticalAlign=middle;whiteSpace=wrap;rounded=0;fontSize=16;" vertex="1" parent="1">
          <mxGeometry x="-7" y="750" width="60" height="30" as="geometry" />
        </mxCell>
        <mxCell id="C2vpB9DQUcM9V20TogkW-21" style="edgeStyle=orthogonalEdgeStyle;rounded=0;orthogonalLoop=1;jettySize=auto;html=1;exitX=-0.006;exitY=0.214;exitDx=0;exitDy=0;endArrow=oval;endFill=0;exitPerimeter=0;" edge="1" parent="1">
          <mxGeometry relative="1" as="geometry">
            <mxPoint x="51" y="749" as="targetPoint" />
            <mxPoint x="89.98000000000002" y="749.1199999999999" as="sourcePoint" />
          </mxGeometry>
        </mxCell>
        <mxCell id="C2vpB9DQUcM9V20TogkW-22" value="Abizena" style="text;html=1;strokeColor=none;fillColor=none;align=center;verticalAlign=middle;whiteSpace=wrap;rounded=0;fontSize=16;" vertex="1" parent="1">
          <mxGeometry x="-13" y="732" width="60" height="30" as="geometry" />
        </mxCell>
        <mxCell id="C2vpB9DQUcM9V20TogkW-23" style="edgeStyle=orthogonalEdgeStyle;rounded=0;orthogonalLoop=1;jettySize=auto;html=1;exitX=0.169;exitY=0.982;exitDx=0;exitDy=0;endArrow=oval;endFill=0;exitPerimeter=0;" edge="1" parent="1" source="ZefZ5wgN9eoWKqnJJMVi-4">
          <mxGeometry relative="1" as="geometry">
            <mxPoint x="120" y="853" as="targetPoint" />
            <mxPoint x="99.98000000000002" y="759.1199999999999" as="sourcePoint" />
            <Array as="points">
              <mxPoint x="119" y="843" />
              <mxPoint x="119" y="843" />
              <mxPoint x="119" y="853" />
            </Array>
          </mxGeometry>
        </mxCell>
        <mxCell id="C2vpB9DQUcM9V20TogkW-24" value="Sexua" style="text;html=1;strokeColor=none;fillColor=none;align=center;verticalAlign=middle;whiteSpace=wrap;rounded=0;fontSize=16;rotation=-90;" vertex="1" parent="1">
          <mxGeometry x="87" y="866" width="60" height="30" as="geometry" />
        </mxCell>
        <mxCell id="C2vpB9DQUcM9V20TogkW-25" style="edgeStyle=orthogonalEdgeStyle;rounded=0;orthogonalLoop=1;jettySize=auto;html=1;exitX=0.169;exitY=0.982;exitDx=0;exitDy=0;endArrow=oval;endFill=0;exitPerimeter=0;" edge="1" parent="1">
          <mxGeometry relative="1" as="geometry">
            <mxPoint x="149" y="853" as="targetPoint" />
            <mxPoint x="148" y="819" as="sourcePoint" />
            <Array as="points">
              <mxPoint x="148" y="843" />
              <mxPoint x="148" y="843" />
              <mxPoint x="148" y="853" />
            </Array>
          </mxGeometry>
        </mxCell>
        <mxCell id="C2vpB9DQUcM9V20TogkW-26" value="Email" style="text;html=1;strokeColor=none;fillColor=none;align=center;verticalAlign=middle;whiteSpace=wrap;rounded=0;fontSize=16;rotation=-90;" vertex="1" parent="1">
          <mxGeometry x="117" y="866" width="60" height="30" as="geometry" />
        </mxCell>
        <mxCell id="C2vpB9DQUcM9V20TogkW-28" value="Telefonoak" style="text;html=1;strokeColor=none;fillColor=none;align=center;verticalAlign=middle;whiteSpace=wrap;rounded=0;fontSize=16;rotation=-90;" vertex="1" parent="1">
          <mxGeometry x="145" y="884" width="60" height="30" as="geometry" />
        </mxCell>
        <mxCell id="C2vpB9DQUcM9V20TogkW-33" value="" style="endArrow=none;html=1;rounded=0;fontSize=12;startSize=8;endSize=8;curved=1;" edge="1" parent="1">
          <mxGeometry width="50" height="50" relative="1" as="geometry">
            <mxPoint x="176" y="849" as="sourcePoint" />
            <mxPoint x="176" y="819" as="targetPoint" />
            <Array as="points">
              <mxPoint x="176" y="839" />
            </Array>
          </mxGeometry>
        </mxCell>
        <mxCell id="C2vpB9DQUcM9V20TogkW-34" value="" style="ellipse;whiteSpace=wrap;html=1;aspect=fixed;fontSize=16;strokeWidth=1;" vertex="1" parent="1">
          <mxGeometry x="173.5" y="850.5" width="5" height="5" as="geometry" />
        </mxCell>
        <mxCell id="C2vpB9DQUcM9V20TogkW-40" value="Prezioa" style="text;html=1;align=center;verticalAlign=middle;resizable=0;points=[];autosize=1;strokeColor=none;fillColor=none;rotation=-90;" vertex="1" parent="1">
          <mxGeometry x="1293" y="309" width="60" height="30" as="geometry" />
        </mxCell>
        <mxCell id="ZefZ5wgN9eoWKqnJJMVi-32" style="edgeStyle=orthogonalEdgeStyle;rounded=0;orthogonalLoop=1;jettySize=auto;html=1;exitX=-0.006;exitY=0.214;exitDx=0;exitDy=0;endArrow=oval;endFill=0;exitPerimeter=0;" edge="1" parent="1">
          <mxGeometry relative="1" as="geometry">
            <mxPoint x="205.02" y="848" as="targetPoint" />
            <mxPoint x="205.00000000000003" y="819.1199999999999" as="sourcePoint" />
            <Array as="points">
              <mxPoint x="205.02" y="828" />
              <mxPoint x="205.02" y="828" />
            </Array>
          </mxGeometry>
        </mxCell>
        <mxCell id="ZefZ5wgN9eoWKqnJJMVi-33" value="Jaio data" style="text;html=1;align=center;verticalAlign=middle;resizable=0;points=[];autosize=1;strokeColor=none;fillColor=none;rotation=-90;" vertex="1" parent="1">
          <mxGeometry x="170" y="873" width="70" height="30" as="geometry" />
        </mxCell>
        <mxCell id="ZefZ5wgN9eoWKqnJJMVi-38" value="&lt;br&gt;saio_id" style="text;html=1;align=center;verticalAlign=middle;resizable=0;points=[];autosize=1;strokeColor=none;fillColor=none;rotation=-90;" vertex="1" parent="1">
          <mxGeometry x="872" y="324" width="60" height="40" as="geometry" />
        </mxCell>
        <mxCell id="ZefZ5wgN9eoWKqnJJMVi-39" value="data" style="text;html=1;align=center;verticalAlign=middle;resizable=0;points=[];autosize=1;strokeColor=none;fillColor=none;rotation=-90;" vertex="1" parent="1">
          <mxGeometry x="856" y="343" width="50" height="30" as="geometry" />
        </mxCell>
        <mxCell id="ZefZ5wgN9eoWKqnJJMVi-40" value="Ordutegia" style="text;html=1;align=center;verticalAlign=middle;resizable=0;points=[];autosize=1;strokeColor=none;fillColor=none;rotation=-90;" vertex="1" parent="1">
          <mxGeometry x="932" y="324" width="80" height="30" as="geometry" />
        </mxCell>
        <mxCell id="ZefZ5wgN9eoWKqnJJMVi-43" value="(1,1)" style="text;html=1;align=center;verticalAlign=middle;resizable=0;points=[];autosize=1;strokeColor=none;fillColor=none;" vertex="1" parent="1">
          <mxGeometry x="964" y="-115" width="50" height="30" as="geometry" />
        </mxCell>
        <mxCell id="ZefZ5wgN9eoWKqnJJMVi-52" value="&lt;br&gt;(0,N)" style="text;html=1;align=center;verticalAlign=middle;resizable=0;points=[];autosize=1;strokeColor=none;fillColor=none;rotation=0;" vertex="1" parent="1">
          <mxGeometry x="581" y="384" width="50" height="40" as="geometry" />
        </mxCell>
        <mxCell id="ZefZ5wgN9eoWKqnJJMVi-53" value="(1,n)" style="text;html=1;align=center;verticalAlign=middle;resizable=0;points=[];autosize=1;strokeColor=none;fillColor=none;" vertex="1" parent="1">
          <mxGeometry x="1002" y="409" width="50" height="30" as="geometry" />
        </mxCell>
        <mxCell id="zKvvEOAe6I7a4DyK3pMX-2" style="edgeStyle=orthogonalEdgeStyle;rounded=0;orthogonalLoop=1;jettySize=auto;html=1;exitX=0.5;exitY=0;exitDx=0;exitDy=0;endArrow=oval;endFill=1;strokeWidth=1;" edge="1" parent="1">
          <mxGeometry relative="1" as="geometry">
            <mxPoint x="809" y="-140" as="targetPoint" />
            <mxPoint x="809" y="-100" as="sourcePoint" />
          </mxGeometry>
        </mxCell>
        <mxCell id="zKvvEOAe6I7a4DyK3pMX-6" style="edgeStyle=orthogonalEdgeStyle;rounded=0;orthogonalLoop=1;jettySize=auto;html=1;exitX=0.5;exitY=0;exitDx=0;exitDy=0;endArrow=oval;endFill=0;" edge="1" parent="1">
          <mxGeometry relative="1" as="geometry">
            <mxPoint x="881.996666666667" y="377" as="targetPoint" />
            <mxPoint x="882.33" y="412" as="sourcePoint" />
          </mxGeometry>
        </mxCell>
        <mxCell id="zKvvEOAe6I7a4DyK3pMX-10" style="edgeStyle=orthogonalEdgeStyle;rounded=0;orthogonalLoop=1;jettySize=auto;html=1;exitX=0.5;exitY=1;exitDx=0;exitDy=0;endArrow=block;endFill=1;" edge="1" parent="1" source="zKvvEOAe6I7a4DyK3pMX-9">
          <mxGeometry relative="1" as="geometry">
            <mxPoint x="686" y="750" as="targetPoint" />
          </mxGeometry>
        </mxCell>
        <mxCell id="zKvvEOAe6I7a4DyK3pMX-9" value="" style="rhombus;whiteSpace=wrap;html=1;" vertex="1" parent="1">
          <mxGeometry x="646" y="585" width="80" height="80" as="geometry" />
        </mxCell>
        <mxCell id="zKvvEOAe6I7a4DyK3pMX-26" style="edgeStyle=orthogonalEdgeStyle;rounded=0;orthogonalLoop=1;jettySize=auto;html=1;exitX=1;exitY=0.5;exitDx=0;exitDy=0;endArrow=oval;endFill=0;" edge="1" parent="1" source="zKvvEOAe6I7a4DyK3pMX-11">
          <mxGeometry relative="1" as="geometry">
            <mxPoint x="770" y="778" as="targetPoint" />
          </mxGeometry>
        </mxCell>
        <mxCell id="zKvvEOAe6I7a4DyK3pMX-36" style="edgeStyle=orthogonalEdgeStyle;rounded=0;orthogonalLoop=1;jettySize=auto;html=1;exitX=1;exitY=0.25;exitDx=0;exitDy=0;endArrow=oval;endFill=1;" edge="1" parent="1" source="zKvvEOAe6I7a4DyK3pMX-11">
          <mxGeometry relative="1" as="geometry">
            <mxPoint x="770" y="762.848484848485" as="targetPoint" />
          </mxGeometry>
        </mxCell>
        <mxCell id="F93zZ3QP_-gJFDKHSWdQ-1" style="edgeStyle=orthogonalEdgeStyle;rounded=0;orthogonalLoop=1;jettySize=auto;html=1;exitX=0.5;exitY=1;exitDx=0;exitDy=0;endArrow=none;endFill=0;startArrow=classic;startFill=1;" edge="1" parent="1" source="zKvvEOAe6I7a4DyK3pMX-11">
          <mxGeometry relative="1" as="geometry">
            <mxPoint x="686" y="880" as="targetPoint" />
          </mxGeometry>
        </mxCell>
        <mxCell id="zKvvEOAe6I7a4DyK3pMX-11" value="Erosketak" style="rounded=0;whiteSpace=wrap;html=1;" vertex="1" parent="1">
          <mxGeometry x="626" y="748" width="120" height="60" as="geometry" />
        </mxCell>
        <mxCell id="zKvvEOAe6I7a4DyK3pMX-16" style="edgeStyle=orthogonalEdgeStyle;rounded=0;orthogonalLoop=1;jettySize=auto;html=1;exitX=0;exitY=0.5;exitDx=0;exitDy=0;entryX=1;entryY=0.5;entryDx=0;entryDy=0;endArrow=none;endFill=0;" edge="1" parent="1" source="zKvvEOAe6I7a4DyK3pMX-15" target="ZefZ5wgN9eoWKqnJJMVi-4">
          <mxGeometry relative="1" as="geometry" />
        </mxCell>
        <mxCell id="0xUYKPxSzaEvcI9a60H4-47" style="edgeStyle=orthogonalEdgeStyle;rounded=0;orthogonalLoop=1;jettySize=auto;html=1;entryX=0;entryY=0.5;entryDx=0;entryDy=0;" edge="1" parent="1" source="zKvvEOAe6I7a4DyK3pMX-15" target="zKvvEOAe6I7a4DyK3pMX-11">
          <mxGeometry relative="1" as="geometry" />
        </mxCell>
        <mxCell id="zKvvEOAe6I7a4DyK3pMX-15" value="erosi" style="rhombus;whiteSpace=wrap;html=1;" vertex="1" parent="1">
          <mxGeometry x="440" y="740" width="80" height="80" as="geometry" />
        </mxCell>
        <mxCell id="zKvvEOAe6I7a4DyK3pMX-20" value="Sarrera" style="rounded=0;whiteSpace=wrap;html=1;" vertex="1" parent="1">
          <mxGeometry x="411" y="404" width="150" height="60" as="geometry" />
        </mxCell>
        <mxCell id="zKvvEOAe6I7a4DyK3pMX-30" value="id_Erosketak" style="text;html=1;align=center;verticalAlign=middle;resizable=0;points=[];autosize=1;strokeColor=none;fillColor=none;" vertex="1" parent="1">
          <mxGeometry x="499" y="485" width="90" height="30" as="geometry" />
        </mxCell>
        <mxCell id="zKvvEOAe6I7a4DyK3pMX-31" value="id_Erosketak" style="text;html=1;align=center;verticalAlign=middle;resizable=0;points=[];autosize=1;strokeColor=none;fillColor=none;" vertex="1" parent="1">
          <mxGeometry x="776" y="748" width="90" height="30" as="geometry" />
        </mxCell>
        <mxCell id="zKvvEOAe6I7a4DyK3pMX-35" value="Diru totala" style="text;html=1;align=center;verticalAlign=middle;resizable=0;points=[];autosize=1;strokeColor=none;fillColor=none;" vertex="1" parent="1">
          <mxGeometry x="771" y="763" width="80" height="30" as="geometry" />
        </mxCell>
        <mxCell id="zKvvEOAe6I7a4DyK3pMX-37" value="" style="endArrow=classicThin;html=1;rounded=0;exitX=-0.012;exitY=-0.066;exitDx=0;exitDy=0;exitPerimeter=0;edgeStyle=orthogonalEdgeStyle;entryX=0.373;entryY=0.057;entryDx=0;entryDy=0;entryPerimeter=0;endFill=1;" edge="1" parent="1" source="zKvvEOAe6I7a4DyK3pMX-35" target="zKvvEOAe6I7a4DyK3pMX-30">
          <mxGeometry width="50" height="50" relative="1" as="geometry">
            <mxPoint x="680" y="660" as="sourcePoint" />
            <mxPoint x="470" y="470" as="targetPoint" />
            <Array as="points">
              <mxPoint x="770" y="487" />
            </Array>
          </mxGeometry>
        </mxCell>
        <mxCell id="zKvvEOAe6I7a4DyK3pMX-38" value="(0,n)" style="text;html=1;align=center;verticalAlign=middle;resizable=0;points=[];autosize=1;strokeColor=none;fillColor=none;" vertex="1" parent="1">
          <mxGeometry x="576" y="790" width="50" height="30" as="geometry" />
        </mxCell>
        <mxCell id="zKvvEOAe6I7a4DyK3pMX-39" value="(1,1)" style="text;html=1;align=center;verticalAlign=middle;resizable=0;points=[];autosize=1;strokeColor=none;fillColor=none;" vertex="1" parent="1">
          <mxGeometry x="270" y="750" width="50" height="30" as="geometry" />
        </mxCell>
        <mxCell id="zKvvEOAe6I7a4DyK3pMX-44" value="" style="endArrow=none;html=1;rounded=0;exitX=0;exitY=0.5;exitDx=0;exitDy=0;entryX=1;entryY=0.5;entryDx=0;entryDy=0;" edge="1" parent="1" source="zKvvEOAe6I7a4DyK3pMX-9" target="zKvvEOAe6I7a4DyK3pMX-9">
          <mxGeometry width="50" height="50" relative="1" as="geometry">
            <mxPoint x="180" y="500" as="sourcePoint" />
            <mxPoint x="230" y="450" as="targetPoint" />
          </mxGeometry>
        </mxCell>
        <mxCell id="zKvvEOAe6I7a4DyK3pMX-45" value="ditu" style="text;html=1;align=center;verticalAlign=middle;resizable=0;points=[];autosize=1;strokeColor=none;fillColor=none;" vertex="1" parent="1">
          <mxGeometry x="666" y="627" width="40" height="30" as="geometry" />
        </mxCell>
        <mxCell id="zKvvEOAe6I7a4DyK3pMX-46" value="&lt;font style=&quot;font-size: 15px;&quot;&gt;I&lt;/font&gt;" style="text;html=1;align=center;verticalAlign=middle;resizable=0;points=[];autosize=1;strokeColor=none;fillColor=none;" vertex="1" parent="1">
          <mxGeometry x="671" y="597" width="30" height="30" as="geometry" />
        </mxCell>
        <mxCell id="UgjbDa-Vu-Xmhkbv8iaK-1" value="(1,N)" style="text;html=1;align=center;verticalAlign=middle;resizable=0;points=[];autosize=1;strokeColor=none;fillColor=none;rotation=0;fontSize=13;" vertex="1" parent="1">
          <mxGeometry x="455" y="702" width="50" height="30" as="geometry" />
        </mxCell>
        <mxCell id="UgjbDa-Vu-Xmhkbv8iaK-2" value="(1,n)" style="text;html=1;align=center;verticalAlign=middle;resizable=0;points=[];autosize=1;strokeColor=none;fillColor=none;" vertex="1" parent="1">
          <mxGeometry x="690" y="718" width="50" height="30" as="geometry" />
        </mxCell>
        <mxCell id="UgjbDa-Vu-Xmhkbv8iaK-3" value="(1,1)" style="text;html=1;align=center;verticalAlign=middle;resizable=0;points=[];autosize=1;strokeColor=none;fillColor=none;" vertex="1" parent="1">
          <mxGeometry x="481" y="530" width="50" height="30" as="geometry" />
        </mxCell>
        <mxCell id="auXIDBL9j_P1kWm5OIt1-1" value="1:N" style="text;html=1;align=center;verticalAlign=middle;resizable=0;points=[];autosize=1;strokeColor=none;fillColor=none;fontSize=19;" vertex="1" parent="1">
          <mxGeometry x="596" y="605" width="50" height="40" as="geometry" />
        </mxCell>
        <mxCell id="auXIDBL9j_P1kWm5OIt1-2" style="edgeStyle=orthogonalEdgeStyle;rounded=0;orthogonalLoop=1;jettySize=auto;html=1;exitX=-0.006;exitY=0.214;exitDx=0;exitDy=0;endArrow=oval;endFill=0;exitPerimeter=0;" edge="1" parent="1">
          <mxGeometry relative="1" as="geometry">
            <mxPoint x="236.02" y="848" as="targetPoint" />
            <mxPoint x="236.00000000000003" y="819.1199999999999" as="sourcePoint" />
            <Array as="points">
              <mxPoint x="236.02" y="828" />
              <mxPoint x="236.02" y="828" />
            </Array>
          </mxGeometry>
        </mxCell>
        <mxCell id="auXIDBL9j_P1kWm5OIt1-3" value="Pasahitza" style="text;html=1;align=center;verticalAlign=middle;resizable=0;points=[];autosize=1;strokeColor=none;fillColor=none;rotation=-90;" vertex="1" parent="1">
          <mxGeometry x="195" y="870" width="80" height="30" as="geometry" />
        </mxCell>
        <mxCell id="auXIDBL9j_P1kWm5OIt1-4" style="edgeStyle=orthogonalEdgeStyle;rounded=0;orthogonalLoop=1;jettySize=auto;html=1;exitX=0.75;exitY=0;exitDx=0;exitDy=0;endArrow=oval;endFill=0;" edge="1" parent="1">
          <mxGeometry relative="1" as="geometry">
            <mxPoint x="909" y="-148" as="targetPoint" />
            <mxPoint x="909" y="-99" as="sourcePoint" />
          </mxGeometry>
        </mxCell>
        <mxCell id="auXIDBL9j_P1kWm5OIt1-5" value="Telefonoa" style="text;html=1;align=center;verticalAlign=middle;resizable=0;points=[];autosize=1;strokeColor=none;fillColor=none;rotation=-90;" vertex="1" parent="1">
          <mxGeometry x="869" y="-199" width="80" height="30" as="geometry" />
        </mxCell>
        <mxCell id="mAaCQEFvhIQ5pJ8AMs-x-1" value="(1,1)" style="text;html=1;align=center;verticalAlign=middle;resizable=0;points=[];autosize=1;strokeColor=none;fillColor=none;" vertex="1" parent="1">
          <mxGeometry x="1198" y="408" width="50" height="30" as="geometry" />
        </mxCell>
        <mxCell id="ZefZ5wgN9eoWKqnJJMVi-4" value="Bezeroa" style="rounded=0;whiteSpace=wrap;html=1;" vertex="1" parent="1">
          <mxGeometry x="90" y="740" width="170" height="80" as="geometry" />
        </mxCell>
        <mxCell id="auXIDBL9j_P1kWm5OIt1-7" style="edgeStyle=orthogonalEdgeStyle;rounded=0;orthogonalLoop=1;jettySize=auto;html=1;exitX=0.75;exitY=0;exitDx=0;exitDy=0;endArrow=oval;endFill=0;" edge="1" parent="1">
          <mxGeometry relative="1" as="geometry">
            <mxPoint x="870" y="-139" as="targetPoint" />
            <mxPoint x="870" y="-99" as="sourcePoint" />
            <Array as="points">
              <mxPoint x="870" y="-119" />
              <mxPoint x="871" y="-119" />
              <mxPoint x="871" y="-118" />
              <mxPoint x="870" y="-118" />
            </Array>
          </mxGeometry>
        </mxCell>
        <mxCell id="auXIDBL9j_P1kWm5OIt1-8" value="Email&lt;br&gt;" style="text;html=1;align=center;verticalAlign=middle;resizable=0;points=[];autosize=1;strokeColor=none;fillColor=none;rotation=-90;" vertex="1" parent="1">
          <mxGeometry x="844" y="-175" width="50" height="30" as="geometry" />
        </mxCell>
        <mxCell id="mAaCQEFvhIQ5pJ8AMs-x-9" value="Instagram" style="text;html=1;align=center;verticalAlign=middle;resizable=0;points=[];autosize=1;strokeColor=none;fillColor=none;" vertex="1" parent="1">
          <mxGeometry x="660" y="-105" width="80" height="30" as="geometry" />
        </mxCell>
        <mxCell id="mAaCQEFvhIQ5pJ8AMs-x-10" value="twitter" style="text;html=1;align=center;verticalAlign=middle;resizable=0;points=[];autosize=1;strokeColor=none;fillColor=none;" vertex="1" parent="1">
          <mxGeometry x="680" y="-65" width="60" height="30" as="geometry" />
        </mxCell>
        <mxCell id="mAaCQEFvhIQ5pJ8AMs-x-11" value="Facebook" style="text;html=1;align=center;verticalAlign=middle;resizable=0;points=[];autosize=1;strokeColor=none;fillColor=none;" vertex="1" parent="1">
          <mxGeometry x="834" y="-10" width="80" height="30" as="geometry" />
        </mxCell>
        <mxCell id="mAaCQEFvhIQ5pJ8AMs-x-12" value="Youtube" style="text;html=1;align=center;verticalAlign=middle;resizable=0;points=[];autosize=1;strokeColor=none;fillColor=none;" vertex="1" parent="1">
          <mxGeometry x="771" y="-10" width="70" height="30" as="geometry" />
        </mxCell>
        <mxCell id="yfIDoNttYfwJfurWIFvp-6" value="dauka" style="rhombus;whiteSpace=wrap;html=1;" vertex="1" parent="1">
          <mxGeometry x="732" y="394" width="80" height="80" as="geometry" />
        </mxCell>
        <mxCell id="yfIDoNttYfwJfurWIFvp-9" value="(1,1)" style="text;html=1;align=center;verticalAlign=middle;resizable=0;points=[];autosize=1;strokeColor=none;fillColor=none;" vertex="1" parent="1">
          <mxGeometry x="821" y="399" width="50" height="30" as="geometry" />
        </mxCell>
        <mxCell id="LhZWKfIVhBZ4ZfQ72-kc-2" value="1:1:N" style="text;html=1;align=center;verticalAlign=middle;resizable=0;points=[];autosize=1;strokeColor=none;fillColor=none;fontSize=19;" vertex="1" parent="1">
          <mxGeometry x="1082" y="485" width="70" height="40" as="geometry" />
        </mxCell>
        <mxCell id="LhZWKfIVhBZ4ZfQ72-kc-3" value="1:N" style="text;html=1;align=center;verticalAlign=middle;resizable=0;points=[];autosize=1;strokeColor=none;fillColor=none;fontSize=19;" vertex="1" parent="1">
          <mxGeometry x="747" y="354" width="50" height="40" as="geometry" />
        </mxCell>
        <mxCell id="0xUYKPxSzaEvcI9a60H4-17" value="" style="rounded=0;whiteSpace=wrap;html=1;" vertex="1" parent="1">
          <mxGeometry x="1026" y="119" width="200" height="80" as="geometry" />
        </mxCell>
        <mxCell id="0xUYKPxSzaEvcI9a60H4-18" style="edgeStyle=orthogonalEdgeStyle;rounded=0;orthogonalLoop=1;jettySize=auto;html=1;exitX=0.25;exitY=0;exitDx=0;exitDy=0;endArrow=oval;endFill=0;" edge="1" parent="1">
          <mxGeometry relative="1" as="geometry">
            <mxPoint x="1218" y="80" as="targetPoint" />
            <mxPoint x="1218" y="129" as="sourcePoint" />
          </mxGeometry>
        </mxCell>
        <mxCell id="0xUYKPxSzaEvcI9a60H4-33" style="edgeStyle=orthogonalEdgeStyle;rounded=0;orthogonalLoop=1;jettySize=auto;html=1;entryX=0.5;entryY=0;entryDx=0;entryDy=0;" edge="1" parent="1" source="0xUYKPxSzaEvcI9a60H4-20" target="ZefZ5wgN9eoWKqnJJMVi-16">
          <mxGeometry relative="1" as="geometry" />
        </mxCell>
        <mxCell id="0xUYKPxSzaEvcI9a60H4-37" style="edgeStyle=orthogonalEdgeStyle;rounded=0;orthogonalLoop=1;jettySize=auto;html=1;endArrow=oval;endFill=1;" edge="1" parent="1" source="0xUYKPxSzaEvcI9a60H4-20" target="0xUYKPxSzaEvcI9a60H4-29">
          <mxGeometry relative="1" as="geometry">
            <Array as="points">
              <mxPoint x="1260" y="172" />
              <mxPoint x="1260" y="172" />
            </Array>
          </mxGeometry>
        </mxCell>
        <mxCell id="0xUYKPxSzaEvcI9a60H4-20" value="Aretoa" style="rounded=0;whiteSpace=wrap;html=1;" vertex="1" parent="1">
          <mxGeometry x="1038" y="129" width="180" height="60" as="geometry" />
        </mxCell>
        <mxCell id="0xUYKPxSzaEvcI9a60H4-21" value="" style="rhombus;whiteSpace=wrap;html=1;spacing=2;" vertex="1" parent="1">
          <mxGeometry x="1098" y="-108" width="80" height="80" as="geometry" />
        </mxCell>
        <mxCell id="0xUYKPxSzaEvcI9a60H4-22" value="" style="endArrow=none;html=1;rounded=0;entryX=0.5;entryY=1;entryDx=0;entryDy=0;exitX=0.556;exitY=-0.017;exitDx=0;exitDy=0;exitPerimeter=0;endFill=0;startArrow=classic;startFill=1;" edge="1" parent="1" source="0xUYKPxSzaEvcI9a60H4-20" target="0xUYKPxSzaEvcI9a60H4-21">
          <mxGeometry width="50" height="50" relative="1" as="geometry">
            <mxPoint x="1138" y="-11" as="sourcePoint" />
            <mxPoint x="1398" y="69" as="targetPoint" />
          </mxGeometry>
        </mxCell>
        <mxCell id="0xUYKPxSzaEvcI9a60H4-23" value="izena" style="text;html=1;align=center;verticalAlign=middle;resizable=0;points=[];autosize=1;strokeColor=none;fillColor=none;rotation=-90;" vertex="1" parent="1">
          <mxGeometry x="1193" y="34" width="50" height="30" as="geometry" />
        </mxCell>
        <mxCell id="0xUYKPxSzaEvcI9a60H4-25" value="areto_id" style="text;html=1;align=center;verticalAlign=middle;resizable=0;points=[];autosize=1;strokeColor=none;fillColor=none;rotation=0;" vertex="1" parent="1">
          <mxGeometry x="1364" y="127" width="70" height="30" as="geometry" />
        </mxCell>
        <mxCell id="0xUYKPxSzaEvcI9a60H4-26" value="1:N" style="text;html=1;align=center;verticalAlign=middle;resizable=0;points=[];autosize=1;strokeColor=none;fillColor=none;fontSize=19;" vertex="1" parent="1">
          <mxGeometry x="1168" y="-120" width="50" height="40" as="geometry" />
        </mxCell>
        <mxCell id="0xUYKPxSzaEvcI9a60H4-27" value="(1,N)" style="text;html=1;align=center;verticalAlign=middle;resizable=0;points=[];autosize=1;strokeColor=none;fillColor=none;rotation=-90;fontSize=13;" vertex="1" parent="1">
          <mxGeometry x="1092" y="80" width="50" height="30" as="geometry" />
        </mxCell>
        <mxCell id="0xUYKPxSzaEvcI9a60H4-28" value="(1,1)" style="text;html=1;strokeColor=none;fillColor=none;align=center;verticalAlign=middle;whiteSpace=wrap;rounded=0;fontSize=16;" vertex="1" parent="1">
          <mxGeometry x="1173" y="203" width="60" height="30" as="geometry" />
        </mxCell>
        <mxCell id="0xUYKPxSzaEvcI9a60H4-29" value="zinema_id" style="text;html=1;align=center;verticalAlign=middle;resizable=0;points=[];autosize=1;strokeColor=none;fillColor=none;rotation=0;" vertex="1" parent="1">
          <mxGeometry x="1364" y="157" width="80" height="30" as="geometry" />
        </mxCell>
        <mxCell id="0xUYKPxSzaEvcI9a60H4-30" value="" style="endArrow=none;html=1;rounded=0;exitX=0;exitY=0.5;exitDx=0;exitDy=0;entryX=1;entryY=0.5;entryDx=0;entryDy=0;spacing=2;" edge="1" parent="1">
          <mxGeometry width="50" height="50" relative="1" as="geometry">
            <mxPoint x="1098" y="-68.62" as="sourcePoint" />
            <mxPoint x="1178" y="-68.62" as="targetPoint" />
            <Array as="points">
              <mxPoint x="1131" y="-68.62" />
            </Array>
          </mxGeometry>
        </mxCell>
        <mxCell id="0xUYKPxSzaEvcI9a60H4-31" value="i" style="text;html=1;align=center;verticalAlign=middle;resizable=0;points=[];autosize=1;strokeColor=none;fillColor=none;fontStyle=1;fontSize=15;spacing=2;" vertex="1" parent="1">
          <mxGeometry x="1123" y="-99" width="30" height="30" as="geometry" />
        </mxCell>
        <mxCell id="0xUYKPxSzaEvcI9a60H4-32" value="eduki" style="text;html=1;align=center;verticalAlign=middle;resizable=0;points=[];autosize=1;strokeColor=none;fillColor=none;spacing=2;" vertex="1" parent="1">
          <mxGeometry x="1113" y="-69" width="50" height="30" as="geometry" />
        </mxCell>
        <mxCell id="0xUYKPxSzaEvcI9a60H4-34" value="" style="edgeStyle=orthogonalEdgeStyle;rounded=0;orthogonalLoop=1;jettySize=auto;html=1;endArrow=oval;endFill=1;exitX=1;exitY=0.5;exitDx=0;exitDy=0;" edge="1" parent="1" source="0xUYKPxSzaEvcI9a60H4-17" target="0xUYKPxSzaEvcI9a60H4-25">
          <mxGeometry relative="1" as="geometry">
            <mxPoint x="1270" y="170" as="targetPoint" />
            <mxPoint x="1253.5099999999995" y="255.36" as="sourcePoint" />
            <Array as="points">
              <mxPoint x="1226" y="140" />
            </Array>
          </mxGeometry>
        </mxCell>
        <mxCell id="0xUYKPxSzaEvcI9a60H4-39" style="edgeStyle=orthogonalEdgeStyle;rounded=0;orthogonalLoop=1;jettySize=auto;html=1;entryX=0.927;entryY=-0.07;entryDx=0;entryDy=0;entryPerimeter=0;endArrow=none;endFill=0;startArrow=oval;startFill=0;" edge="1" parent="1" source="iCEelQpR8W68b0SyWvai-13" target="iCEelQpR8W68b0SyWvai-1">
          <mxGeometry relative="1" as="geometry" />
        </mxCell>
        <mxCell id="0xUYKPxSzaEvcI9a60H4-40" style="edgeStyle=orthogonalEdgeStyle;rounded=0;orthogonalLoop=1;jettySize=auto;html=1;entryX=0.477;entryY=0.093;entryDx=0;entryDy=0;entryPerimeter=0;endArrow=oval;endFill=0;" edge="1" parent="1" source="iCEelQpR8W68b0SyWvai-1" target="mAaCQEFvhIQ5pJ8AMs-x-12">
          <mxGeometry relative="1" as="geometry">
            <Array as="points">
              <mxPoint x="804" y="-30" />
              <mxPoint x="804" y="-30" />
            </Array>
          </mxGeometry>
        </mxCell>
        <mxCell id="0xUYKPxSzaEvcI9a60H4-43" style="edgeStyle=orthogonalEdgeStyle;rounded=0;orthogonalLoop=1;jettySize=auto;html=1;entryX=0.51;entryY=0.093;entryDx=0;entryDy=0;entryPerimeter=0;endArrow=oval;endFill=0;" edge="1" parent="1" source="iCEelQpR8W68b0SyWvai-1" target="mAaCQEFvhIQ5pJ8AMs-x-11">
          <mxGeometry relative="1" as="geometry" />
        </mxCell>
        <mxCell id="BmQ0V8moq76DHFzlYRCR-1" value="" style="endArrow=none;html=1;rounded=0;fontSize=12;startSize=8;endSize=8;curved=0;endFill=0;startArrow=classic;startFill=1;" edge="1" parent="1">
          <mxGeometry width="50" height="50" relative="1" as="geometry">
            <mxPoint x="1360" y="200" as="sourcePoint" />
            <mxPoint x="790" y="-140" as="targetPoint" />
            <Array as="points">
              <mxPoint x="1360" y="240" />
              <mxPoint x="1440" y="240" />
              <mxPoint x="1440" y="-280" />
              <mxPoint x="760" y="-280" />
              <mxPoint x="760" y="-140" />
            </Array>
          </mxGeometry>
        </mxCell>
        <mxCell id="0DmICMmvaamkeUCGaFqj-1" style="edgeStyle=orthogonalEdgeStyle;rounded=0;orthogonalLoop=1;jettySize=auto;html=1;exitX=1;exitY=0.75;exitDx=0;exitDy=0;entryX=0.038;entryY=0.967;entryDx=0;entryDy=0;entryPerimeter=0;endArrow=oval;endFill=0;" edge="1" parent="1" source="zKvvEOAe6I7a4DyK3pMX-11" target="zKvvEOAe6I7a4DyK3pMX-35">
          <mxGeometry relative="1" as="geometry" />
        </mxCell>
        <mxCell id="0DmICMmvaamkeUCGaFqj-2" value="Jatorria" style="text;html=1;align=center;verticalAlign=middle;resizable=0;points=[];autosize=1;strokeColor=none;fillColor=none;" vertex="1" parent="1">
          <mxGeometry x="776" y="780" width="60" height="30" as="geometry" />
        </mxCell>
        <mxCell id="F93zZ3QP_-gJFDKHSWdQ-3" style="edgeStyle=orthogonalEdgeStyle;rounded=0;orthogonalLoop=1;jettySize=auto;html=1;exitX=0.5;exitY=1;exitDx=0;exitDy=0;endArrow=none;endFill=0;" edge="1" parent="1" source="F93zZ3QP_-gJFDKHSWdQ-2">
          <mxGeometry relative="1" as="geometry">
            <mxPoint x="686" y="1020" as="targetPoint" />
          </mxGeometry>
        </mxCell>
        <mxCell id="F93zZ3QP_-gJFDKHSWdQ-2" value="egin" style="rhombus;whiteSpace=wrap;html=1;" vertex="1" parent="1">
          <mxGeometry x="646" y="873" width="80" height="80" as="geometry" />
        </mxCell>
        <mxCell id="F93zZ3QP_-gJFDKHSWdQ-5" style="edgeStyle=orthogonalEdgeStyle;rounded=0;orthogonalLoop=1;jettySize=auto;html=1;exitX=1;exitY=0.25;exitDx=0;exitDy=0;endArrow=oval;endFill=1;" edge="1" parent="1" source="F93zZ3QP_-gJFDKHSWdQ-4">
          <mxGeometry relative="1" as="geometry">
            <mxPoint x="780" y="1034.8235294117649" as="targetPoint" />
          </mxGeometry>
        </mxCell>
        <mxCell id="F93zZ3QP_-gJFDKHSWdQ-8" style="edgeStyle=orthogonalEdgeStyle;rounded=0;orthogonalLoop=1;jettySize=auto;html=1;exitX=1;exitY=0.75;exitDx=0;exitDy=0;endArrow=oval;endFill=0;" edge="1" parent="1" source="F93zZ3QP_-gJFDKHSWdQ-4">
          <mxGeometry relative="1" as="geometry">
            <mxPoint x="780" y="1065.4117647058824" as="targetPoint" />
          </mxGeometry>
        </mxCell>
        <mxCell id="F93zZ3QP_-gJFDKHSWdQ-10" style="edgeStyle=orthogonalEdgeStyle;rounded=0;orthogonalLoop=1;jettySize=auto;html=1;exitX=0.75;exitY=1;exitDx=0;exitDy=0;endArrow=oval;endFill=0;" edge="1" parent="1" source="F93zZ3QP_-gJFDKHSWdQ-4">
          <mxGeometry relative="1" as="geometry">
            <mxPoint x="730" y="1110" as="targetPoint" />
          </mxGeometry>
        </mxCell>
        <mxCell id="F93zZ3QP_-gJFDKHSWdQ-22" style="edgeStyle=orthogonalEdgeStyle;rounded=0;orthogonalLoop=1;jettySize=auto;html=1;exitX=0.25;exitY=1;exitDx=0;exitDy=0;endArrow=oval;endFill=0;" edge="1" parent="1" source="F93zZ3QP_-gJFDKHSWdQ-4">
          <mxGeometry relative="1" as="geometry">
            <mxPoint x="661" y="1110" as="targetPoint" />
          </mxGeometry>
        </mxCell>
        <mxCell id="F93zZ3QP_-gJFDKHSWdQ-27" style="edgeStyle=orthogonalEdgeStyle;rounded=0;orthogonalLoop=1;jettySize=auto;html=1;exitX=0;exitY=1;exitDx=0;exitDy=0;endArrow=oval;endFill=0;" edge="1" parent="1" source="F93zZ3QP_-gJFDKHSWdQ-4">
          <mxGeometry relative="1" as="geometry">
            <mxPoint x="610" y="1079.8571428571427" as="targetPoint" />
          </mxGeometry>
        </mxCell>
        <mxCell id="F93zZ3QP_-gJFDKHSWdQ-29" style="edgeStyle=orthogonalEdgeStyle;rounded=0;orthogonalLoop=1;jettySize=auto;html=1;exitX=0;exitY=0.5;exitDx=0;exitDy=0;endArrow=oval;endFill=0;" edge="1" parent="1" source="F93zZ3QP_-gJFDKHSWdQ-4">
          <mxGeometry relative="1" as="geometry">
            <mxPoint x="600" y="1050.1428571428573" as="targetPoint" />
          </mxGeometry>
        </mxCell>
        <mxCell id="F93zZ3QP_-gJFDKHSWdQ-4" value="Langilea" style="rounded=0;whiteSpace=wrap;html=1;" vertex="1" parent="1">
          <mxGeometry x="631" y="1020" width="120" height="60" as="geometry" />
        </mxCell>
        <mxCell id="F93zZ3QP_-gJFDKHSWdQ-12" value="id_langilea" style="text;html=1;align=center;verticalAlign=middle;resizable=0;points=[];autosize=1;strokeColor=none;fillColor=none;" vertex="1" parent="1">
          <mxGeometry x="781" y="1020" width="80" height="30" as="geometry" />
        </mxCell>
        <mxCell id="F93zZ3QP_-gJFDKHSWdQ-13" value="Izena" style="text;html=1;align=center;verticalAlign=middle;resizable=0;points=[];autosize=1;strokeColor=none;fillColor=none;" vertex="1" parent="1">
          <mxGeometry x="791" y="1050" width="50" height="30" as="geometry" />
        </mxCell>
        <mxCell id="F93zZ3QP_-gJFDKHSWdQ-14" value="abizena" style="text;html=1;align=center;verticalAlign=middle;resizable=0;points=[];autosize=1;strokeColor=none;fillColor=none;rotation=90;" vertex="1" parent="1">
          <mxGeometry x="699" y="1130" width="70" height="30" as="geometry" />
        </mxCell>
        <mxCell id="F93zZ3QP_-gJFDKHSWdQ-17" value="" style="edgeStyle=orthogonalEdgeStyle;rounded=0;orthogonalLoop=1;jettySize=auto;html=1;exitX=0.5;exitY=1;exitDx=0;exitDy=0;endArrow=oval;endFill=0;strokeColor=default;shadow=0;fillColor=#000000;" edge="1" parent="1">
          <mxGeometry relative="1" as="geometry">
            <mxPoint x="691" y="1100" as="targetPoint" />
            <mxPoint x="690.94" y="1080" as="sourcePoint" />
          </mxGeometry>
        </mxCell>
        <mxCell id="F93zZ3QP_-gJFDKHSWdQ-16" value="" style="shape=mxgraph.signs.nature.moon;html=1;pointerEvents=1;fillColor=#151515;strokeColor=#000000;verticalLabelPosition=bottom;verticalAlign=top;align=center;gradientColor=none;strokeWidth=19;direction=south;rotation=-95;" vertex="1" parent="1">
          <mxGeometry x="695.04" y="1121.28" height="2.5" as="geometry" />
        </mxCell>
        <mxCell id="F93zZ3QP_-gJFDKHSWdQ-18" value="" style="shape=mxgraph.signs.nature.moon;html=1;pointerEvents=1;fillColor=#000000;strokeColor=none;verticalLabelPosition=bottom;verticalAlign=top;align=center;sketch=0;" vertex="1" parent="1">
          <mxGeometry x="690" y="1150" width="10" as="geometry" />
        </mxCell>
        <mxCell id="F93zZ3QP_-gJFDKHSWdQ-21" value="NAN" style="text;html=1;align=center;verticalAlign=middle;resizable=0;points=[];autosize=1;strokeColor=none;fillColor=none;rotation=90;" vertex="1" parent="1">
          <mxGeometry x="666" y="1107.53" width="50" height="30" as="geometry" />
        </mxCell>
        <mxCell id="F93zZ3QP_-gJFDKHSWdQ-23" value="Postua" style="text;html=1;align=center;verticalAlign=middle;resizable=0;points=[];autosize=1;strokeColor=none;fillColor=none;rotation=90;" vertex="1" parent="1">
          <mxGeometry x="631" y="1123.78" width="60" height="30" as="geometry" />
        </mxCell>
        <mxCell id="F93zZ3QP_-gJFDKHSWdQ-24" value="(0,N)" style="text;html=1;align=center;verticalAlign=middle;resizable=0;points=[];autosize=1;strokeColor=none;fillColor=none;" vertex="1" parent="1">
          <mxGeometry x="695.04" y="808" width="50" height="30" as="geometry" />
        </mxCell>
        <mxCell id="F93zZ3QP_-gJFDKHSWdQ-25" value="1:N" style="text;html=1;align=center;verticalAlign=middle;resizable=0;points=[];autosize=1;strokeColor=none;fillColor=none;" vertex="1" parent="1">
          <mxGeometry x="740" y="896" width="40" height="30" as="geometry" />
        </mxCell>
        <mxCell id="F93zZ3QP_-gJFDKHSWdQ-26" value="(1,1)" style="text;html=1;align=center;verticalAlign=middle;resizable=0;points=[];autosize=1;strokeColor=none;fillColor=none;" vertex="1" parent="1">
          <mxGeometry x="682" y="990" width="50" height="30" as="geometry" />
        </mxCell>
        <mxCell id="F93zZ3QP_-gJFDKHSWdQ-28" value="Erabiltzailea" style="text;html=1;align=center;verticalAlign=middle;resizable=0;points=[];autosize=1;strokeColor=none;fillColor=none;" vertex="1" parent="1">
          <mxGeometry x="520" y="1060" width="90" height="30" as="geometry" />
        </mxCell>
        <mxCell id="F93zZ3QP_-gJFDKHSWdQ-30" value="Pasahitza" style="text;html=1;align=center;verticalAlign=middle;resizable=0;points=[];autosize=1;strokeColor=none;fillColor=none;" vertex="1" parent="1">
          <mxGeometry x="525" y="1035" width="80" height="30" as="geometry" />
        </mxCell>
      </root>
    </mxGraphModel>
  </diagram>
</mxfile>
